<?xml version="1.0" encoding="utf-8"?>
<!-- Generator: Adobe Illustrator 21.1.0, SVG Export Plug-In . SVG Version: 6.00 Build 0)  -->
<svg version="1.1" id="Layer_1" xmlns="http://www.w3.org/2000/svg" xmlns:xlink="http://www.w3.org/1999/xlink" x="0px" y="0px"
	 width="25px" height="25px" viewBox="0 0 25 25" enable-background="new 0 0 25 25" xml:space="preserve">
<filter  filterUnits="objectBoundingBox" height="177.8%" id="filter-2" width="177.8%" x="-38.9%" y="-27.8%">
	<feOffset  dx="0" dy="2" in="SourceAlpha" result="shadowOffsetOuter1"></feOffset>
	<feGaussianBlur  in="shadowOffsetOuter1" result="shadowBlurOuter1" stdDeviation="2"></feGaussianBlur>
	<feColorMatrix  in="shadowBlurOuter1" type="matrix" values="0 0 0 0 0   0 0 0 0 0   0 0 0 0 0  0 0 0 0.3 0"></feColorMatrix>
</filter>
<g id="search_icon">
	<g filter="url(#filter-2)">
		<path id="path-1_2_" d="M16.5,13h-0.8l-0.3-0.3c1-1.1,1.6-2.6,1.6-4.2C17,4.9,14.1,2,10.5,2S4,4.9,4,8.5S6.9,15,10.5,15
			c1.6,0,3.1-0.6,4.2-1.6l0.3,0.3v0.8l5,5l1.5-1.5L16.5,13L16.5,13z M10.5,13C8,13,6,11,6,8.5S8,4,10.5,4S15,6,15,8.5S13,13,10.5,13
			L10.5,13z"/>
	</g>
	<g>
		<path id="path-1_1_" fill="#FFFFFF" d="M16.5,13h-0.8l-0.3-0.3c1-1.1,1.6-2.6,1.6-4.2C17,4.9,14.1,2,10.5,2S4,4.9,4,8.5
			S6.9,15,10.5,15c1.6,0,3.1-0.6,4.2-1.6l0.3,0.3v0.8l5,5l1.5-1.5L16.5,13L16.5,13z M10.5,13C8,13,6,11,6,8.5S8,4,10.5,4
			S15,6,15,8.5S13,13,10.5,13L10.5,13z"/>
	</g>
</g>
</svg>
